<svg width="60" height="60" viewBox="0 0 60 60" fill="none" xmlns="http://www.w3.org/2000/svg">
<path d="M24.375 54.375H35.625V58.125H24.375V54.375ZM22.5 48.75H37.5V52.5H22.5V48.75ZM43.2914 7.34648C39.7676 3.81796 35.0473 1.87499 30 1.87499C27.5361 1.86912 25.0952 2.35009 22.8177 3.29029C20.5402 4.23048 18.4709 5.61138 16.7286 7.35364C14.9864 9.09591 13.6055 11.1652 12.6653 13.4427C11.7251 15.7202 11.2441 18.1611 11.25 20.625C11.25 26.0883 13.3441 31.1988 16.9922 34.6453L17.5031 35.1246C19.6137 37.098 22.5 39.8016 22.5 42.1875V46.875H28.125V31.5363L22.9359 28.5937L25.0781 25.5141L30 28.125L34.8387 25.5012L37.0769 28.5105L31.875 31.5574V46.875H37.5V42.1875C37.5 39.8578 40.3547 37.1566 42.4394 35.1832L43.0148 34.6371C46.7672 31.0547 48.75 26.2043 48.75 20.625C48.7624 18.1608 48.2864 15.7186 47.3495 13.4395C46.4126 11.1604 45.0333 9.08947 43.2914 7.34648Z" fill="#E71E0E"/>
</svg>
