<svg width="60" height="60" viewBox="0 0 60 60" fill="none" xmlns="http://www.w3.org/2000/svg">
<path fill-rule="evenodd" clip-rule="evenodd" d="M0.625 17.5C0.625 15.6766 1.34933 13.928 2.63864 12.6386C3.92795 11.3493 5.67664 10.625 7.5 10.625H40C41.8234 10.625 43.572 11.3493 44.8614 12.6386C46.1507 13.928 46.875 15.6766 46.875 17.5V22.8225C46.5733 23.0225 46.2892 23.2558 46.0225 23.5225L38.5225 31.0225C38.0002 31.5448 37.5858 32.1649 37.3031 32.8474C37.0204 33.5299 36.875 34.2613 36.875 35C36.875 35.7387 37.0204 36.4701 37.3031 37.1526C37.5858 37.8351 38.0002 38.4552 38.5225 38.9775L45.775 46.23C45.1518 47.1949 44.2967 47.9883 43.2879 48.5377C42.2791 49.0871 41.1487 49.375 40 49.375H7.5C5.67664 49.375 3.92795 48.6507 2.63864 47.3614C1.34933 46.072 0.625 44.3234 0.625 42.5V17.5ZM41.175 33.675L46.875 27.975V42.025L44.375 39.525L41.175 36.325C40.8239 35.9734 40.6266 35.4969 40.6266 35C40.6266 34.5031 40.8239 34.0266 41.175 33.675ZM13.54 20.94C13.1262 20.6707 12.6229 20.5754 12.1393 20.6749C11.6558 20.7744 11.2309 21.0606 10.9571 21.4714C10.6832 21.8822 10.5824 22.3844 10.6766 22.869C10.7707 23.3537 11.0522 23.7816 11.46 24.06L22.71 31.56C23.018 31.7653 23.3799 31.8749 23.75 31.8749C24.1201 31.8749 24.482 31.7653 24.79 31.56L36.04 24.06C36.4478 23.7816 36.7293 23.3537 36.8234 22.869C36.9176 22.3844 36.8168 21.8822 36.5429 21.4714C36.2691 21.0606 35.8442 20.7744 35.3607 20.6749C34.8771 20.5754 34.3738 20.6707 33.96 20.94L23.75 27.7475L13.54 20.94Z" fill="#E71E0E"/>
<path fill-rule="evenodd" clip-rule="evenodd" d="M51.325 26.175C51.6761 26.5266 51.8733 27.0031 51.8733 27.5C51.8733 27.9969 51.6761 28.4734 51.325 28.825L47.025 33.125H57.5C57.9973 33.125 58.4742 33.3225 58.8258 33.6742C59.1775 34.0258 59.375 34.5027 59.375 35C59.375 35.4973 59.1775 35.9742 58.8258 36.3258C58.4742 36.6775 57.9973 36.875 57.5 36.875H47.025L51.325 41.175C51.5092 41.3467 51.657 41.5537 51.7595 41.7836C51.8619 42.0136 51.917 42.2619 51.9215 42.5137C51.9259 42.7654 51.8796 43.0155 51.7853 43.249C51.691 43.4825 51.5506 43.6945 51.3726 43.8726C51.1945 44.0506 50.9825 44.191 50.749 44.2853C50.5155 44.3796 50.2655 44.4259 50.0137 44.4215C49.7619 44.417 49.5136 44.3619 49.2837 44.2595C49.0537 44.157 48.8467 44.0092 48.675 43.825L41.175 36.325C40.8239 35.9734 40.6266 35.4969 40.6266 35C40.6266 34.5031 40.8239 34.0266 41.175 33.675L48.675 26.175C49.0266 25.8239 49.5031 25.6266 50 25.6266C50.4969 25.6266 50.9734 25.8239 51.325 26.175Z" fill="#E71E0E"/>
</svg>
