<svg width="24" height="24" viewBox="0 0 24 24" fill="none" xmlns="http://www.w3.org/2000/svg">
<path d="M22 8.162V8.235C22 9.095 22 9.526 21.793 9.878C21.586 10.23 21.209 10.439 20.457 10.858L19.664 11.298C20.21 9.45 20.393 7.464 20.46 5.766L20.47 5.545L20.472 5.493C21.123 5.719 21.489 5.888 21.717 6.204C22 6.597 22 7.119 22 8.162ZM2 8.162V8.235C2 9.095 2 9.526 2.207 9.878C2.414 10.23 2.791 10.439 3.543 10.858L4.337 11.298C3.79 9.45 3.607 7.464 3.54 5.766L3.53 5.545L3.529 5.493C2.877 5.719 2.511 5.888 2.283 6.204C2 6.597 2 7.12 2 8.162Z" fill="#E71E0E"/>
<path fill-rule="evenodd" clip-rule="evenodd" d="M16.377 2.347C14.9302 2.10999 13.4661 1.99393 12 2C10.217 2 8.74701 2.157 7.62301 2.347C6.48401 2.539 5.91501 2.635 5.43901 3.221C4.96401 3.807 4.98901 4.44 5.03901 5.706C5.21201 10.054 6.15001 15.486 11.25 15.966V19.5H9.82001C9.58891 19.5001 9.365 19.5803 9.18634 19.7269C9.00768 19.8735 8.8853 20.0774 8.84001 20.304L8.65001 21.25H6.00001C5.80109 21.25 5.61033 21.329 5.46968 21.4697C5.32902 21.6103 5.25001 21.8011 5.25001 22C5.25001 22.1989 5.32902 22.3897 5.46968 22.5303C5.61033 22.671 5.80109 22.75 6.00001 22.75H18C18.1989 22.75 18.3897 22.671 18.5303 22.5303C18.671 22.3897 18.75 22.1989 18.75 22C18.75 21.8011 18.671 21.6103 18.5303 21.4697C18.3897 21.329 18.1989 21.25 18 21.25H15.35L15.16 20.304C15.1147 20.0774 14.9923 19.8735 14.8137 19.7269C14.635 19.5803 14.4111 19.5001 14.18 19.5H12.75V15.966C17.85 15.486 18.789 10.055 18.961 5.706C19.011 4.44 19.037 3.806 18.561 3.221C18.085 2.635 17.516 2.539 16.377 2.347ZM12.787 5.807C12.9241 5.86377 13.0412 5.95991 13.1236 6.08326C13.206 6.20662 13.25 6.35164 13.25 6.5V10.5C13.25 10.6989 13.171 10.8897 13.0303 11.0303C12.8897 11.171 12.6989 11.25 12.5 11.25C12.3011 11.25 12.1103 11.171 11.9697 11.0303C11.829 10.8897 11.75 10.6989 11.75 10.5V8.31L11.53 8.53C11.4613 8.60368 11.3785 8.66279 11.2865 8.70378C11.1945 8.74477 11.0952 8.76681 10.9945 8.76859C10.8938 8.77037 10.7938 8.75184 10.7004 8.71412C10.607 8.6764 10.5222 8.62025 10.451 8.54904C10.3797 8.47782 10.3236 8.39298 10.2859 8.2996C10.2482 8.20621 10.2296 8.10618 10.2314 8.00548C10.2332 7.90477 10.2552 7.80546 10.2962 7.71346C10.3372 7.62146 10.3963 7.53866 10.47 7.47L11.97 5.97C12.0748 5.86511 12.2084 5.79364 12.3538 5.76463C12.4992 5.73561 12.65 5.75036 12.787 5.807Z" fill="#E71E0E"/>
</svg>
