<svg width="41" height="41" viewBox="0 0 41 41" fill="none" xmlns="http://www.w3.org/2000/svg">
<path d="M15.4433 36.7975C17.0833 37.2929 18.7404 37.5833 20.5 37.5833C25.0307 37.5833 29.376 35.7834 32.5797 32.5797C35.7834 29.376 37.5833 25.0307 37.5833 20.5C37.5833 18.2565 37.1414 16.0351 36.2829 13.9625C35.4244 11.8898 34.166 10.0066 32.5797 8.42022C30.9934 6.83388 29.1101 5.57554 27.0375 4.71702C24.9648 3.8585 22.7434 3.41663 20.5 3.41663C18.2565 3.41663 16.0351 3.8585 13.9625 4.71702C11.8898 5.57554 10.0066 6.83388 8.42022 8.42022C5.21647 11.624 3.41663 15.9692 3.41663 20.5C3.41663 27.7604 7.97788 33.9958 14.4183 36.4558C14.2645 35.1233 14.1108 32.9195 14.4183 31.3991L16.3829 22.96C16.3829 22.96 15.8875 21.9691 15.8875 20.3975C15.8875 18.04 17.3566 16.2804 19.0308 16.2804C20.5 16.2804 21.1833 17.3566 21.1833 18.7404C21.1833 20.2095 20.2095 22.3108 19.7141 24.3266C19.4237 26.0008 20.6025 27.47 22.3108 27.47C25.3516 27.47 27.7091 24.2241 27.7091 19.6458C27.7091 15.5458 24.7708 12.7441 20.5512 12.7441C15.7337 12.7441 12.8979 16.3316 12.8979 20.107C12.8979 21.5762 13.3762 23.0625 14.162 24.0362C14.3158 24.1387 14.3158 24.2754 14.2645 24.5316L13.7691 26.3937C13.7691 26.6841 13.5812 26.7866 13.2908 26.5816C11.1041 25.625 9.83996 22.5158 9.83996 20.0045C9.83996 14.6062 13.6666 9.70329 21.0466 9.70329C26.9233 9.70329 31.5016 13.9229 31.5016 19.5262C31.5016 25.4029 27.8629 30.1179 22.6525 30.1179C20.9954 30.1179 19.3725 29.2295 18.7916 28.1875L17.647 32.2362C17.2541 33.7054 16.1779 35.67 15.4433 36.8487V36.7975Z" fill="#E71E0E"/>
</svg>
