<svg width="41" height="41" viewBox="0 0 41 41" fill="none" xmlns="http://www.w3.org/2000/svg">
<path d="M30.5791 18.6208C25.1125 15.375 15.9729 15.0333 10.7625 16.6562C9.90829 16.9125 9.05413 16.4 8.79788 15.6312C8.54163 14.777 9.05413 13.9229 9.82288 13.6666C15.8875 11.8729 25.8812 12.2145 32.202 15.9729C32.9708 16.4 33.227 17.425 32.8 18.1937C32.3729 18.7916 31.3479 19.0479 30.5791 18.6208ZM30.4083 23.4041C29.9812 24.002 29.2125 24.2583 28.6145 23.8312C24.002 21.0125 16.9979 20.1583 11.6166 21.8666C10.9333 22.0375 10.1645 21.6958 9.99371 21.0125C9.82288 20.3291 10.1645 19.5604 10.8479 19.3895C17.0833 17.5104 24.7708 18.45 30.0666 21.6958C30.5791 21.952 30.8354 22.8062 30.4083 23.4041ZM28.3583 28.102C28.0166 28.6145 27.4187 28.7854 26.9062 28.4437C22.8916 25.9666 17.852 25.4541 11.8729 26.8208C11.275 26.9916 10.7625 26.5645 10.5916 26.052C10.4208 25.4541 10.8479 24.9416 11.3604 24.7708C17.852 23.3187 23.4895 23.9166 27.9312 26.65C28.5291 26.9062 28.6145 27.5895 28.3583 28.102ZM20.5 3.41663C18.2565 3.41663 16.0351 3.8585 13.9625 4.71702C11.8898 5.57554 10.0066 6.83388 8.42022 8.42022C5.21647 11.624 3.41663 15.9692 3.41663 20.5C3.41663 25.0307 5.21647 29.376 8.42022 32.5797C10.0066 34.166 11.8898 35.4244 13.9625 36.2829C16.0351 37.1414 18.2565 37.5833 20.5 37.5833C25.0307 37.5833 29.376 35.7834 32.5797 32.5797C35.7834 29.376 37.5833 25.0307 37.5833 20.5C37.5833 18.2565 37.1414 16.0351 36.2829 13.9625C35.4244 11.8898 34.166 10.0066 32.5797 8.42022C30.9934 6.83388 29.1101 5.57554 27.0375 4.71702C24.9648 3.8585 22.7434 3.41663 20.5 3.41663Z" fill="#E71E0E"/>
</svg>
