<svg width="41" height="41" viewBox="0 0 41 41" fill="none" xmlns="http://www.w3.org/2000/svg">
<g clip-path="url(#clip0_17_19)">
<path d="M23.7861 20.1576L19.1818 18.0092C18.78 17.8226 18.4499 18.0317 18.4499 18.4766V22.5233C18.4499 22.9681 18.78 23.1772 19.1818 22.9907L23.784 20.8423C24.1879 20.6537 24.1879 20.3462 23.7861 20.1576ZM20.4999 0.819946C9.63085 0.819946 0.819946 9.63085 0.819946 20.4999C0.819946 31.369 9.63085 40.1799 20.4999 40.1799C31.369 40.1799 40.1799 31.369 40.1799 20.4999C40.1799 9.63085 31.369 0.819946 20.4999 0.819946ZM20.4999 28.4949C10.4262 28.4949 10.2499 27.5868 10.2499 20.4999C10.2499 13.4131 10.4262 12.5049 20.4999 12.5049C30.5736 12.5049 30.7499 13.4131 30.7499 20.4999C30.7499 27.5868 30.5736 28.4949 20.4999 28.4949Z" fill="#E71E0E"/>
</g>
<defs>
<clipPath id="clip0_17_19">
<rect width="41" height="41" fill="white"/>
</clipPath>
</defs>
</svg>
